<mxfile modified="2024-04-24T11:02:05.384Z" host="app.diagrams.net" agent="Mozilla/5.0 (Windows NT 10.0; Win64; x64) AppleWebKit/537.36 (KHTML, like Gecko) Chrome/124.0.0.0 Safari/537.36 Edg/124.0.0.0" etag="EXqvx0SR0FLAmuZPlFYT" version="24.2.8" type="github">
  <diagram id="Ht1M8jgEwFfnCIfOTk4-" name="Page-1">
    <mxGraphModel dx="2407" dy="1789" grid="1" gridSize="10" guides="1" tooltips="1" connect="1" arrows="1" fold="1" page="1" pageScale="1" pageWidth="1169" pageHeight="827" math="0" shadow="0">
      <root>
        <mxCell id="0" />
        <mxCell id="1" parent="0" />
        <mxCell id="c2jffzd3dU6k3eYHks2j-16" style="edgeStyle=orthogonalEdgeStyle;rounded=0;orthogonalLoop=1;jettySize=auto;html=1;" edge="1" parent="1" source="c2jffzd3dU6k3eYHks2j-3" target="c2jffzd3dU6k3eYHks2j-14">
          <mxGeometry relative="1" as="geometry" />
        </mxCell>
        <mxCell id="c2jffzd3dU6k3eYHks2j-3" value="" style="verticalLabelPosition=bottom;html=1;verticalAlign=top;align=center;strokeColor=none;fillColor=#00BEF2;shape=mxgraph.azure.user;rotation=0;" vertex="1" parent="1">
          <mxGeometry y="560" width="80" height="80" as="geometry" />
        </mxCell>
        <mxCell id="c2jffzd3dU6k3eYHks2j-12" style="edgeStyle=orthogonalEdgeStyle;rounded=0;orthogonalLoop=1;jettySize=auto;html=1;entryX=0;entryY=0;entryDx=0;entryDy=0;" edge="1" parent="1" source="c2jffzd3dU6k3eYHks2j-5" target="c2jffzd3dU6k3eYHks2j-7">
          <mxGeometry relative="1" as="geometry" />
        </mxCell>
        <mxCell id="c2jffzd3dU6k3eYHks2j-5" value="" style="sketch=0;points=[[0,0,0],[0.25,0,0],[0.5,0,0],[0.75,0,0],[1,0,0],[0,1,0],[0.25,1,0],[0.5,1,0],[0.75,1,0],[1,1,0],[0,0.25,0],[0,0.5,0],[0,0.75,0],[1,0.25,0],[1,0.5,0],[1,0.75,0]];points=[[0,0,0],[0.25,0,0],[0.5,0,0],[0.75,0,0],[1,0,0],[0,1,0],[0.25,1,0],[0.5,1,0],[0.75,1,0],[1,1,0],[0,0.25,0],[0,0.5,0],[0,0.75,0],[1,0.25,0],[1,0.5,0],[1,0.75,0]];outlineConnect=0;fontColor=#232F3E;fillColor=#E7157B;strokeColor=#ffffff;dashed=0;verticalLabelPosition=bottom;verticalAlign=top;align=center;html=1;fontSize=12;fontStyle=0;aspect=fixed;shape=mxgraph.aws4.resourceIcon;resIcon=mxgraph.aws4.cloudformation;rotation=0;" vertex="1" parent="1">
          <mxGeometry x="80" y="280" width="80" height="80" as="geometry" />
        </mxCell>
        <mxCell id="c2jffzd3dU6k3eYHks2j-7" value="&lt;font style=&quot;font-size: 14px;&quot;&gt;&lt;b&gt;AWS Cloud Infrastructure&lt;/b&gt;&lt;/font&gt;" style="points=[[0,0],[0.25,0],[0.5,0],[0.75,0],[1,0],[1,0.25],[1,0.5],[1,0.75],[1,1],[0.75,1],[0.5,1],[0.25,1],[0,1],[0,0.75],[0,0.5],[0,0.25]];outlineConnect=0;gradientColor=none;html=1;whiteSpace=wrap;fontSize=12;fontStyle=0;container=1;pointerEvents=0;collapsible=0;recursiveResize=0;shape=mxgraph.aws4.group;grIcon=mxgraph.aws4.group_aws_cloud_alt;strokeColor=#232F3E;fillColor=none;verticalAlign=top;align=left;spacingLeft=30;fontColor=#232F3E;dashed=0;movable=0;resizable=0;rotatable=0;deletable=0;editable=0;locked=1;connectable=0;" vertex="1" parent="1">
          <mxGeometry x="440" y="-100" width="1510" height="950" as="geometry" />
        </mxCell>
        <mxCell id="c2jffzd3dU6k3eYHks2j-8" value="VPC" style="points=[[0,0],[0.25,0],[0.5,0],[0.75,0],[1,0],[1,0.25],[1,0.5],[1,0.75],[1,1],[0.75,1],[0.5,1],[0.25,1],[0,1],[0,0.75],[0,0.5],[0,0.25]];outlineConnect=0;gradientColor=none;html=1;whiteSpace=wrap;fontSize=12;fontStyle=0;container=1;pointerEvents=0;collapsible=0;recursiveResize=0;shape=mxgraph.aws4.group;grIcon=mxgraph.aws4.group_vpc2;strokeColor=#8C4FFF;fillColor=none;verticalAlign=top;align=left;spacingLeft=30;fontColor=#AAB7B8;dashed=0;movable=1;resizable=1;rotatable=1;deletable=1;editable=1;locked=0;connectable=1;" vertex="1" parent="c2jffzd3dU6k3eYHks2j-7">
          <mxGeometry y="270" width="1510" height="680" as="geometry" />
        </mxCell>
        <mxCell id="c2jffzd3dU6k3eYHks2j-17" value="&lt;b&gt;&lt;font style=&quot;font-size: 14px;&quot;&gt;CICD&lt;/font&gt;&lt;/b&gt;" style="fillColor=none;strokeColor=#5A6C86;dashed=1;verticalAlign=top;fontStyle=0;fontColor=#5A6C86;whiteSpace=wrap;html=1;movable=1;resizable=1;rotatable=1;deletable=1;editable=1;locked=0;connectable=1;" vertex="1" parent="c2jffzd3dU6k3eYHks2j-8">
          <mxGeometry y="210" width="360" height="140" as="geometry" />
        </mxCell>
        <mxCell id="c2jffzd3dU6k3eYHks2j-20" value="" style="sketch=0;points=[[0,0,0],[0.25,0,0],[0.5,0,0],[0.75,0,0],[1,0,0],[0,1,0],[0.25,1,0],[0.5,1,0],[0.75,1,0],[1,1,0],[0,0.25,0],[0,0.5,0],[0,0.75,0],[1,0.25,0],[1,0.5,0],[1,0.75,0]];outlineConnect=0;fontColor=#232F3E;fillColor=#C925D1;strokeColor=#ffffff;dashed=0;verticalLabelPosition=bottom;verticalAlign=top;align=center;html=1;fontSize=12;fontStyle=0;aspect=fixed;shape=mxgraph.aws4.resourceIcon;resIcon=mxgraph.aws4.codepipeline;rotation=0;" vertex="1" parent="c2jffzd3dU6k3eYHks2j-8">
          <mxGeometry y="240" width="80" height="80" as="geometry" />
        </mxCell>
        <mxCell id="c2jffzd3dU6k3eYHks2j-21" value="&lt;font style=&quot;font-size: 14px;&quot;&gt;&lt;b&gt;CodePipeline&lt;/b&gt;&lt;/font&gt;&lt;div&gt;&lt;br&gt;&lt;/div&gt;" style="text;html=1;align=center;verticalAlign=middle;resizable=0;points=[];autosize=1;strokeColor=none;fillColor=none;" vertex="1" parent="c2jffzd3dU6k3eYHks2j-8">
          <mxGeometry y="320" width="110" height="40" as="geometry" />
        </mxCell>
        <mxCell id="c2jffzd3dU6k3eYHks2j-38" style="edgeStyle=orthogonalEdgeStyle;rounded=0;orthogonalLoop=1;jettySize=auto;html=1;exitX=0;exitY=0.5;exitDx=0;exitDy=0;exitPerimeter=0;" edge="1" parent="c2jffzd3dU6k3eYHks2j-8" source="c2jffzd3dU6k3eYHks2j-25" target="c2jffzd3dU6k3eYHks2j-33">
          <mxGeometry relative="1" as="geometry" />
        </mxCell>
        <mxCell id="c2jffzd3dU6k3eYHks2j-39" style="edgeStyle=orthogonalEdgeStyle;rounded=0;orthogonalLoop=1;jettySize=auto;html=1;exitX=1;exitY=0.5;exitDx=0;exitDy=0;exitPerimeter=0;" edge="1" parent="c2jffzd3dU6k3eYHks2j-8" source="c2jffzd3dU6k3eYHks2j-25" target="c2jffzd3dU6k3eYHks2j-34">
          <mxGeometry relative="1" as="geometry" />
        </mxCell>
        <mxCell id="c2jffzd3dU6k3eYHks2j-25" value="" style="sketch=0;points=[[0,0,0],[0.25,0,0],[0.5,0,0],[0.75,0,0],[1,0,0],[0,1,0],[0.25,1,0],[0.5,1,0],[0.75,1,0],[1,1,0],[0,0.25,0],[0,0.5,0],[0,0.75,0],[1,0.25,0],[1,0.5,0],[1,0.75,0]];outlineConnect=0;fontColor=#232F3E;fillColor=#C925D1;strokeColor=#ffffff;dashed=0;verticalLabelPosition=bottom;verticalAlign=top;align=center;html=1;fontSize=12;fontStyle=0;aspect=fixed;shape=mxgraph.aws4.resourceIcon;resIcon=mxgraph.aws4.codebuild;rotation=0;" vertex="1" parent="c2jffzd3dU6k3eYHks2j-8">
          <mxGeometry x="240" y="240" width="80" height="80" as="geometry" />
        </mxCell>
        <mxCell id="c2jffzd3dU6k3eYHks2j-26" style="edgeStyle=orthogonalEdgeStyle;rounded=0;orthogonalLoop=1;jettySize=auto;html=1;exitX=0.5;exitY=1;exitDx=0;exitDy=0;" edge="1" parent="c2jffzd3dU6k3eYHks2j-8" source="c2jffzd3dU6k3eYHks2j-17" target="c2jffzd3dU6k3eYHks2j-17">
          <mxGeometry relative="1" as="geometry" />
        </mxCell>
        <mxCell id="c2jffzd3dU6k3eYHks2j-29" value="&lt;font style=&quot;font-size: 14px;&quot;&gt;&lt;b&gt;CodeBuild&lt;/b&gt;&lt;/font&gt;" style="text;html=1;align=center;verticalAlign=middle;resizable=0;points=[];autosize=1;strokeColor=none;fillColor=none;" vertex="1" parent="c2jffzd3dU6k3eYHks2j-8">
          <mxGeometry x="235" y="319" width="90" height="30" as="geometry" />
        </mxCell>
        <mxCell id="c2jffzd3dU6k3eYHks2j-33" value="" style="sketch=0;points=[[0,0,0],[0.25,0,0],[0.5,0,0],[0.75,0,0],[1,0,0],[0,1,0],[0.25,1,0],[0.5,1,0],[0.75,1,0],[1,1,0],[0,0.25,0],[0,0.5,0],[0,0.75,0],[1,0.25,0],[1,0.5,0],[1,0.75,0]];outlineConnect=0;fontColor=#232F3E;fillColor=#ED7100;strokeColor=#ffffff;dashed=0;verticalLabelPosition=bottom;verticalAlign=top;align=center;html=1;fontSize=12;fontStyle=0;aspect=fixed;shape=mxgraph.aws4.resourceIcon;resIcon=mxgraph.aws4.ecr;" vertex="1" parent="c2jffzd3dU6k3eYHks2j-8">
          <mxGeometry x="121" y="402" width="78" height="78" as="geometry" />
        </mxCell>
        <mxCell id="c2jffzd3dU6k3eYHks2j-34" value="" style="sketch=0;points=[[0,0,0],[0.25,0,0],[0.5,0,0],[0.75,0,0],[1,0,0],[0,1,0],[0.25,1,0],[0.5,1,0],[0.75,1,0],[1,1,0],[0,0.25,0],[0,0.5,0],[0,0.75,0],[1,0.25,0],[1,0.5,0],[1,0.75,0]];outlineConnect=0;fontColor=#232F3E;fillColor=#ED7100;strokeColor=#ffffff;dashed=0;verticalLabelPosition=bottom;verticalAlign=top;align=center;html=1;fontSize=12;fontStyle=0;aspect=fixed;shape=mxgraph.aws4.resourceIcon;resIcon=mxgraph.aws4.ecr;" vertex="1" parent="c2jffzd3dU6k3eYHks2j-8">
          <mxGeometry x="280" y="402" width="78" height="78" as="geometry" />
        </mxCell>
        <mxCell id="c2jffzd3dU6k3eYHks2j-36" value="&lt;font style=&quot;font-size: 14px;&quot;&gt;&lt;b&gt;Backend Repo&lt;/b&gt;&lt;/font&gt;" style="text;html=1;align=center;verticalAlign=middle;resizable=0;points=[];autosize=1;strokeColor=none;fillColor=none;" vertex="1" parent="c2jffzd3dU6k3eYHks2j-8">
          <mxGeometry x="105" y="480" width="120" height="30" as="geometry" />
        </mxCell>
        <mxCell id="c2jffzd3dU6k3eYHks2j-37" value="&lt;font style=&quot;font-size: 14px;&quot;&gt;&lt;b&gt;Frontend Repo&lt;/b&gt;&lt;/font&gt;&lt;div style=&quot;font-size: 14px;&quot;&gt;&lt;br&gt;&lt;/div&gt;" style="text;html=1;align=center;verticalAlign=middle;resizable=0;points=[];autosize=1;strokeColor=none;fillColor=none;" vertex="1" parent="c2jffzd3dU6k3eYHks2j-8">
          <mxGeometry x="259" y="480" width="120" height="50" as="geometry" />
        </mxCell>
        <mxCell id="c2jffzd3dU6k3eYHks2j-40" style="edgeStyle=orthogonalEdgeStyle;rounded=0;orthogonalLoop=1;jettySize=auto;html=1;entryX=0;entryY=0.5;entryDx=0;entryDy=0;entryPerimeter=0;" edge="1" parent="c2jffzd3dU6k3eYHks2j-8" source="c2jffzd3dU6k3eYHks2j-20" target="c2jffzd3dU6k3eYHks2j-25">
          <mxGeometry relative="1" as="geometry" />
        </mxCell>
        <mxCell id="c2jffzd3dU6k3eYHks2j-68" value="Availability Zone" style="fillColor=none;strokeColor=#147EBA;dashed=1;verticalAlign=top;fontStyle=0;fontColor=#147EBA;whiteSpace=wrap;html=1;" vertex="1" parent="c2jffzd3dU6k3eYHks2j-8">
          <mxGeometry x="440" y="110" width="320" height="484" as="geometry" />
        </mxCell>
        <mxCell id="c2jffzd3dU6k3eYHks2j-84" value="Availability Zone" style="fillColor=none;strokeColor=#147EBA;dashed=1;verticalAlign=top;fontStyle=0;fontColor=#147EBA;whiteSpace=wrap;html=1;" vertex="1" parent="c2jffzd3dU6k3eYHks2j-8">
          <mxGeometry x="840" y="110" width="290" height="484" as="geometry" />
        </mxCell>
        <mxCell id="c2jffzd3dU6k3eYHks2j-85" value="Private subnet" style="points=[[0,0],[0.25,0],[0.5,0],[0.75,0],[1,0],[1,0.25],[1,0.5],[1,0.75],[1,1],[0.75,1],[0.5,1],[0.25,1],[0,1],[0,0.75],[0,0.5],[0,0.25]];outlineConnect=0;gradientColor=none;html=1;whiteSpace=wrap;fontSize=12;fontStyle=0;container=1;pointerEvents=0;collapsible=0;recursiveResize=0;shape=mxgraph.aws4.group;grIcon=mxgraph.aws4.group_security_group;grStroke=0;strokeColor=#00A4A6;fillColor=#E6F6F7;verticalAlign=top;align=left;spacingLeft=30;fontColor=#147EBA;dashed=0;movable=0;resizable=0;rotatable=0;deletable=0;editable=0;locked=1;connectable=0;" vertex="1" parent="c2jffzd3dU6k3eYHks2j-8">
          <mxGeometry x="440" y="390" width="320" height="210" as="geometry" />
        </mxCell>
        <mxCell id="c2jffzd3dU6k3eYHks2j-88" value="Private subnet" style="points=[[0,0],[0.25,0],[0.5,0],[0.75,0],[1,0],[1,0.25],[1,0.5],[1,0.75],[1,1],[0.75,1],[0.5,1],[0.25,1],[0,1],[0,0.75],[0,0.5],[0,0.25]];outlineConnect=0;gradientColor=none;html=1;whiteSpace=wrap;fontSize=12;fontStyle=0;container=1;pointerEvents=0;collapsible=0;recursiveResize=0;shape=mxgraph.aws4.group;grIcon=mxgraph.aws4.group_security_group;grStroke=0;strokeColor=#00A4A6;fillColor=#E6F6F7;verticalAlign=top;align=left;spacingLeft=30;fontColor=#147EBA;dashed=0;" vertex="1" parent="c2jffzd3dU6k3eYHks2j-8">
          <mxGeometry x="840" y="390" width="290" height="200" as="geometry" />
        </mxCell>
        <mxCell id="c2jffzd3dU6k3eYHks2j-89" value="Availability Zone" style="fillColor=none;strokeColor=#147EBA;dashed=1;verticalAlign=top;fontStyle=0;fontColor=#147EBA;whiteSpace=wrap;html=1;" vertex="1" parent="c2jffzd3dU6k3eYHks2j-8">
          <mxGeometry x="1200" y="110" width="290" height="484" as="geometry" />
        </mxCell>
        <mxCell id="c2jffzd3dU6k3eYHks2j-109" value="Private subnet" style="points=[[0,0],[0.25,0],[0.5,0],[0.75,0],[1,0],[1,0.25],[1,0.5],[1,0.75],[1,1],[0.75,1],[0.5,1],[0.25,1],[0,1],[0,0.75],[0,0.5],[0,0.25]];outlineConnect=0;gradientColor=none;html=1;whiteSpace=wrap;fontSize=12;fontStyle=0;container=1;pointerEvents=0;collapsible=0;recursiveResize=0;shape=mxgraph.aws4.group;grIcon=mxgraph.aws4.group_security_group;grStroke=0;strokeColor=#00A4A6;fillColor=#E6F6F7;verticalAlign=top;align=left;spacingLeft=30;fontColor=#147EBA;dashed=0;" vertex="1" parent="c2jffzd3dU6k3eYHks2j-8">
          <mxGeometry x="1200" y="390" width="290" height="200" as="geometry" />
        </mxCell>
        <mxCell id="c2jffzd3dU6k3eYHks2j-113" value="" style="sketch=0;outlineConnect=0;fontColor=#232F3E;gradientColor=none;fillColor=#8C4FFF;strokeColor=none;dashed=0;verticalLabelPosition=bottom;verticalAlign=top;align=center;html=1;fontSize=12;fontStyle=0;aspect=fixed;pointerEvents=1;shape=mxgraph.aws4.internet_gateway;" vertex="1" parent="c2jffzd3dU6k3eYHks2j-8">
          <mxGeometry x="946" width="78" height="78" as="geometry" />
        </mxCell>
        <mxCell id="c2jffzd3dU6k3eYHks2j-121" value="Public subnet" style="points=[[0,0],[0.25,0],[0.5,0],[0.75,0],[1,0],[1,0.25],[1,0.5],[1,0.75],[1,1],[0.75,1],[0.5,1],[0.25,1],[0,1],[0,0.75],[0,0.5],[0,0.25]];outlineConnect=0;gradientColor=none;html=1;whiteSpace=wrap;fontSize=12;fontStyle=0;container=1;pointerEvents=0;collapsible=0;recursiveResize=0;shape=mxgraph.aws4.group;grIcon=mxgraph.aws4.group_security_group;grStroke=0;strokeColor=#7AA116;fillColor=#F2F6E8;verticalAlign=top;align=left;spacingLeft=30;fontColor=#248814;dashed=0;" vertex="1" parent="c2jffzd3dU6k3eYHks2j-8">
          <mxGeometry x="440" y="150" width="320" height="200" as="geometry" />
        </mxCell>
        <mxCell id="c2jffzd3dU6k3eYHks2j-122" value="Public subnet" style="points=[[0,0],[0.25,0],[0.5,0],[0.75,0],[1,0],[1,0.25],[1,0.5],[1,0.75],[1,1],[0.75,1],[0.5,1],[0.25,1],[0,1],[0,0.75],[0,0.5],[0,0.25]];outlineConnect=0;gradientColor=none;html=1;whiteSpace=wrap;fontSize=12;fontStyle=0;container=1;pointerEvents=0;collapsible=0;recursiveResize=0;shape=mxgraph.aws4.group;grIcon=mxgraph.aws4.group_security_group;grStroke=0;strokeColor=#7AA116;fillColor=#F2F6E8;verticalAlign=top;align=left;spacingLeft=30;fontColor=#248814;dashed=0;" vertex="1" parent="c2jffzd3dU6k3eYHks2j-8">
          <mxGeometry x="840" y="150" width="290" height="200" as="geometry" />
        </mxCell>
        <mxCell id="c2jffzd3dU6k3eYHks2j-126" value="" style="sketch=0;outlineConnect=0;fontColor=#232F3E;gradientColor=none;fillColor=#8C4FFF;strokeColor=none;dashed=0;verticalLabelPosition=bottom;verticalAlign=top;align=center;html=1;fontSize=12;fontStyle=0;aspect=fixed;pointerEvents=1;shape=mxgraph.aws4.nat_gateway;" vertex="1" parent="c2jffzd3dU6k3eYHks2j-122">
          <mxGeometry x="106" y="61" width="78" height="78" as="geometry" />
        </mxCell>
        <mxCell id="c2jffzd3dU6k3eYHks2j-128" value="&lt;font style=&quot;font-size: 14px;&quot;&gt;&lt;b&gt;Nat Gateway&lt;/b&gt;&lt;/font&gt;" style="text;html=1;align=center;verticalAlign=middle;resizable=0;points=[];autosize=1;strokeColor=none;fillColor=none;" vertex="1" parent="c2jffzd3dU6k3eYHks2j-122">
          <mxGeometry x="90" y="139" width="110" height="30" as="geometry" />
        </mxCell>
        <mxCell id="c2jffzd3dU6k3eYHks2j-123" value="Public subnet" style="points=[[0,0],[0.25,0],[0.5,0],[0.75,0],[1,0],[1,0.25],[1,0.5],[1,0.75],[1,1],[0.75,1],[0.5,1],[0.25,1],[0,1],[0,0.75],[0,0.5],[0,0.25]];outlineConnect=0;gradientColor=none;html=1;whiteSpace=wrap;fontSize=12;fontStyle=0;container=1;pointerEvents=0;collapsible=0;recursiveResize=0;shape=mxgraph.aws4.group;grIcon=mxgraph.aws4.group_security_group;grStroke=0;strokeColor=#7AA116;fillColor=#F2F6E8;verticalAlign=top;align=left;spacingLeft=30;fontColor=#248814;dashed=0;" vertex="1" parent="c2jffzd3dU6k3eYHks2j-8">
          <mxGeometry x="1200" y="150" width="290" height="200" as="geometry" />
        </mxCell>
        <mxCell id="c2jffzd3dU6k3eYHks2j-127" value="" style="sketch=0;outlineConnect=0;fontColor=#232F3E;gradientColor=none;fillColor=#8C4FFF;strokeColor=none;dashed=0;verticalLabelPosition=bottom;verticalAlign=top;align=center;html=1;fontSize=12;fontStyle=0;aspect=fixed;pointerEvents=1;shape=mxgraph.aws4.nat_gateway;" vertex="1" parent="c2jffzd3dU6k3eYHks2j-123">
          <mxGeometry x="114" y="61" width="78" height="78" as="geometry" />
        </mxCell>
        <mxCell id="c2jffzd3dU6k3eYHks2j-124" value="" style="sketch=0;outlineConnect=0;fontColor=#232F3E;gradientColor=none;fillColor=#8C4FFF;strokeColor=none;dashed=0;verticalLabelPosition=bottom;verticalAlign=top;align=center;html=1;fontSize=12;fontStyle=0;aspect=fixed;pointerEvents=1;shape=mxgraph.aws4.endpoints;" vertex="1" parent="c2jffzd3dU6k3eYHks2j-8">
          <mxGeometry x="1200" width="78" height="78" as="geometry" />
        </mxCell>
        <mxCell id="c2jffzd3dU6k3eYHks2j-125" value="" style="sketch=0;outlineConnect=0;fontColor=#232F3E;gradientColor=none;fillColor=#8C4FFF;strokeColor=none;dashed=0;verticalLabelPosition=bottom;verticalAlign=top;align=center;html=1;fontSize=12;fontStyle=0;aspect=fixed;pointerEvents=1;shape=mxgraph.aws4.nat_gateway;" vertex="1" parent="c2jffzd3dU6k3eYHks2j-8">
          <mxGeometry x="540" y="211" width="78" height="78" as="geometry" />
        </mxCell>
        <mxCell id="c2jffzd3dU6k3eYHks2j-129" value="&lt;font style=&quot;font-size: 14px;&quot;&gt;&lt;b&gt;Nat Gateway&lt;/b&gt;&lt;/font&gt;" style="text;html=1;align=center;verticalAlign=middle;resizable=0;points=[];autosize=1;strokeColor=none;fillColor=none;" vertex="1" parent="c2jffzd3dU6k3eYHks2j-8">
          <mxGeometry x="1300" y="290" width="110" height="30" as="geometry" />
        </mxCell>
        <mxCell id="c2jffzd3dU6k3eYHks2j-130" value="&lt;font style=&quot;font-size: 14px;&quot;&gt;&lt;b&gt;Nat Gateway&lt;/b&gt;&lt;/font&gt;" style="text;html=1;align=center;verticalAlign=middle;resizable=0;points=[];autosize=1;strokeColor=none;fillColor=none;" vertex="1" parent="c2jffzd3dU6k3eYHks2j-8">
          <mxGeometry x="524" y="290" width="110" height="30" as="geometry" />
        </mxCell>
        <mxCell id="c2jffzd3dU6k3eYHks2j-131" value="" style="sketch=0;points=[[0,0,0],[0.25,0,0],[0.5,0,0],[0.75,0,0],[1,0,0],[0,1,0],[0.25,1,0],[0.5,1,0],[0.75,1,0],[1,1,0],[0,0.25,0],[0,0.5,0],[0,0.75,0],[1,0.25,0],[1,0.5,0],[1,0.75,0]];outlineConnect=0;fontColor=#232F3E;fillColor=#ED7100;strokeColor=#ffffff;dashed=0;verticalLabelPosition=bottom;verticalAlign=top;align=center;html=1;fontSize=12;fontStyle=0;aspect=fixed;shape=mxgraph.aws4.resourceIcon;resIcon=mxgraph.aws4.eks;" vertex="1" parent="c2jffzd3dU6k3eYHks2j-8">
          <mxGeometry x="920" y="600" width="78" height="78" as="geometry" />
        </mxCell>
        <mxCell id="c2jffzd3dU6k3eYHks2j-6" value="" style="sketch=0;points=[[0,0,0],[0.25,0,0],[0.5,0,0],[0.75,0,0],[1,0,0],[0,1,0],[0.25,1,0],[0.5,1,0],[0.75,1,0],[1,1,0],[0,0.25,0],[0,0.5,0],[0,0.75,0],[1,0.25,0],[1,0.5,0],[1,0.75,0]];outlineConnect=0;fontColor=#232F3E;fillColor=#7AA116;strokeColor=#ffffff;dashed=0;verticalLabelPosition=bottom;verticalAlign=top;align=center;html=1;fontSize=12;fontStyle=0;aspect=fixed;shape=mxgraph.aws4.resourceIcon;resIcon=mxgraph.aws4.s3;rotation=0;" vertex="1" parent="c2jffzd3dU6k3eYHks2j-7">
          <mxGeometry x="40" y="30" width="80" height="80" as="geometry" />
        </mxCell>
        <mxCell id="c2jffzd3dU6k3eYHks2j-9" value="&lt;font style=&quot;font-size: 14px;&quot;&gt;&lt;b&gt;Terraform/CF Backend State&lt;/b&gt;&lt;/font&gt;" style="text;html=1;align=center;verticalAlign=middle;resizable=0;points=[];autosize=1;strokeColor=none;fillColor=none;" vertex="1" parent="c2jffzd3dU6k3eYHks2j-7">
          <mxGeometry y="108" width="210" height="30" as="geometry" />
        </mxCell>
        <mxCell id="c2jffzd3dU6k3eYHks2j-45" value="" style="sketch=0;points=[[0,0,0],[0.25,0,0],[0.5,0,0],[0.75,0,0],[1,0,0],[0,1,0],[0.25,1,0],[0.5,1,0],[0.75,1,0],[1,1,0],[0,0.25,0],[0,0.5,0],[0,0.75,0],[1,0.25,0],[1,0.5,0],[1,0.75,0]];points=[[0,0,0],[0.25,0,0],[0.5,0,0],[0.75,0,0],[1,0,0],[0,1,0],[0.25,1,0],[0.5,1,0],[0.75,1,0],[1,1,0],[0,0.25,0],[0,0.5,0],[0,0.75,0],[1,0.25,0],[1,0.5,0],[1,0.75,0]];outlineConnect=0;fontColor=#232F3E;fillColor=#E7157B;strokeColor=#ffffff;dashed=0;verticalLabelPosition=bottom;verticalAlign=top;align=center;html=1;fontSize=12;fontStyle=0;aspect=fixed;shape=mxgraph.aws4.resourceIcon;resIcon=mxgraph.aws4.cloudwatch_2;" vertex="1" parent="c2jffzd3dU6k3eYHks2j-7">
          <mxGeometry x="320" width="78" height="78" as="geometry" />
        </mxCell>
        <mxCell id="c2jffzd3dU6k3eYHks2j-46" value="&lt;font style=&quot;font-size: 14px;&quot;&gt;&lt;b&gt;Cloudwatch&lt;/b&gt;&lt;/font&gt;" style="text;html=1;align=center;verticalAlign=middle;resizable=0;points=[];autosize=1;strokeColor=none;fillColor=none;" vertex="1" parent="c2jffzd3dU6k3eYHks2j-7">
          <mxGeometry x="309" y="78" width="100" height="30" as="geometry" />
        </mxCell>
        <mxCell id="c2jffzd3dU6k3eYHks2j-47" style="edgeStyle=orthogonalEdgeStyle;rounded=0;orthogonalLoop=1;jettySize=auto;html=1;entryX=0;entryY=0.5;entryDx=0;entryDy=0;entryPerimeter=0;" edge="1" parent="c2jffzd3dU6k3eYHks2j-7" source="c2jffzd3dU6k3eYHks2j-20" target="c2jffzd3dU6k3eYHks2j-45">
          <mxGeometry relative="1" as="geometry" />
        </mxCell>
        <mxCell id="c2jffzd3dU6k3eYHks2j-56" style="edgeStyle=orthogonalEdgeStyle;rounded=0;orthogonalLoop=1;jettySize=auto;html=1;" edge="1" parent="c2jffzd3dU6k3eYHks2j-7" source="c2jffzd3dU6k3eYHks2j-32" target="c2jffzd3dU6k3eYHks2j-31">
          <mxGeometry relative="1" as="geometry" />
        </mxCell>
        <mxCell id="c2jffzd3dU6k3eYHks2j-32" value="" style="sketch=0;outlineConnect=0;fontColor=#232F3E;gradientColor=none;fillColor=#E7157B;strokeColor=none;dashed=0;verticalLabelPosition=bottom;verticalAlign=top;align=center;html=1;fontSize=12;fontStyle=0;aspect=fixed;pointerEvents=1;shape=mxgraph.aws4.parameter_store;rotation=0;" vertex="1" parent="c2jffzd3dU6k3eYHks2j-7">
          <mxGeometry x="450" y="138" width="70" height="70" as="geometry" />
        </mxCell>
        <mxCell id="c2jffzd3dU6k3eYHks2j-31" value="" style="outlineConnect=0;dashed=0;verticalLabelPosition=bottom;verticalAlign=top;align=center;html=1;shape=mxgraph.aws3.kms;fillColor=#759C3E;gradientColor=none;rotation=0;" vertex="1" parent="c2jffzd3dU6k3eYHks2j-7">
          <mxGeometry x="450" width="70" height="70" as="geometry" />
        </mxCell>
        <mxCell id="c2jffzd3dU6k3eYHks2j-42" value="&lt;font style=&quot;font-size: 14px;&quot;&gt;&lt;b&gt;SSM Parameter Store&lt;/b&gt;&lt;/font&gt;" style="text;html=1;align=center;verticalAlign=middle;resizable=0;points=[];autosize=1;strokeColor=none;fillColor=none;" vertex="1" parent="c2jffzd3dU6k3eYHks2j-7">
          <mxGeometry x="409" y="200" width="170" height="30" as="geometry" />
        </mxCell>
        <mxCell id="c2jffzd3dU6k3eYHks2j-54" value="" style="sketch=0;points=[[0,0,0],[0.25,0,0],[0.5,0,0],[0.75,0,0],[1,0,0],[0,1,0],[0.25,1,0],[0.5,1,0],[0.75,1,0],[1,1,0],[0,0.25,0],[0,0.5,0],[0,0.75,0],[1,0.25,0],[1,0.5,0],[1,0.75,0]];outlineConnect=0;fontColor=#232F3E;fillColor=#DD344C;strokeColor=#ffffff;dashed=0;verticalLabelPosition=bottom;verticalAlign=top;align=center;html=1;fontSize=12;fontStyle=0;aspect=fixed;shape=mxgraph.aws4.resourceIcon;resIcon=mxgraph.aws4.cognito;" vertex="1" parent="c2jffzd3dU6k3eYHks2j-7">
          <mxGeometry x="729" y="22" width="78" height="78" as="geometry" />
        </mxCell>
        <mxCell id="c2jffzd3dU6k3eYHks2j-57" value="&lt;font style=&quot;font-size: 14px;&quot;&gt;&lt;b&gt;Cognito UserPool&lt;/b&gt;&lt;/font&gt;" style="text;html=1;align=center;verticalAlign=middle;resizable=0;points=[];autosize=1;strokeColor=none;fillColor=none;" vertex="1" parent="c2jffzd3dU6k3eYHks2j-7">
          <mxGeometry x="699" y="108" width="140" height="30" as="geometry" />
        </mxCell>
        <mxCell id="c2jffzd3dU6k3eYHks2j-59" value="" style="sketch=0;points=[[0,0,0],[0.25,0,0],[0.5,0,0],[0.75,0,0],[1,0,0],[0,1,0],[0.25,1,0],[0.5,1,0],[0.75,1,0],[1,1,0],[0,0.25,0],[0,0.5,0],[0,0.75,0],[1,0.25,0],[1,0.5,0],[1,0.75,0]];outlineConnect=0;fontColor=#232F3E;fillColor=#7AA116;strokeColor=#ffffff;dashed=0;verticalLabelPosition=bottom;verticalAlign=top;align=center;html=1;fontSize=12;fontStyle=0;aspect=fixed;shape=mxgraph.aws4.resourceIcon;resIcon=mxgraph.aws4.s3;" vertex="1" parent="c2jffzd3dU6k3eYHks2j-7">
          <mxGeometry x="231" y="122" width="78" height="78" as="geometry" />
        </mxCell>
        <mxCell id="c2jffzd3dU6k3eYHks2j-60" value="&lt;font style=&quot;font-size: 14px;&quot;&gt;&lt;b&gt;Artifacts&lt;/b&gt;&lt;/font&gt;" style="text;html=1;align=center;verticalAlign=middle;resizable=0;points=[];autosize=1;strokeColor=none;fillColor=none;" vertex="1" parent="c2jffzd3dU6k3eYHks2j-7">
          <mxGeometry x="231" y="198" width="80" height="30" as="geometry" />
        </mxCell>
        <mxCell id="c2jffzd3dU6k3eYHks2j-61" style="edgeStyle=orthogonalEdgeStyle;rounded=0;orthogonalLoop=1;jettySize=auto;html=1;entryX=0;entryY=0.5;entryDx=0;entryDy=0;entryPerimeter=0;" edge="1" parent="c2jffzd3dU6k3eYHks2j-7" source="c2jffzd3dU6k3eYHks2j-20" target="c2jffzd3dU6k3eYHks2j-59">
          <mxGeometry relative="1" as="geometry" />
        </mxCell>
        <mxCell id="c2jffzd3dU6k3eYHks2j-62" value="" style="sketch=0;points=[[0,0,0],[0.25,0,0],[0.5,0,0],[0.75,0,0],[1,0,0],[0,1,0],[0.25,1,0],[0.5,1,0],[0.75,1,0],[1,1,0],[0,0.25,0],[0,0.5,0],[0,0.75,0],[1,0.25,0],[1,0.5,0],[1,0.75,0]];outlineConnect=0;fontColor=#232F3E;fillColor=#01A88D;strokeColor=#ffffff;dashed=0;verticalLabelPosition=bottom;verticalAlign=top;align=center;html=1;fontSize=12;fontStyle=0;aspect=fixed;shape=mxgraph.aws4.resourceIcon;resIcon=mxgraph.aws4.sagemaker;" vertex="1" parent="c2jffzd3dU6k3eYHks2j-7">
          <mxGeometry x="1280" y="138" width="78" height="78" as="geometry" />
        </mxCell>
        <mxCell id="c2jffzd3dU6k3eYHks2j-63" value="&lt;font style=&quot;font-size: 14px;&quot;&gt;&lt;b&gt;Sagem&lt;/b&gt;&lt;/font&gt;&lt;b style=&quot;background-color: initial; font-size: 14px;&quot;&gt;aker Endpoint&lt;/b&gt;" style="text;html=1;align=center;verticalAlign=middle;resizable=0;points=[];autosize=1;strokeColor=none;fillColor=none;" vertex="1" parent="c2jffzd3dU6k3eYHks2j-7">
          <mxGeometry x="1239" y="216" width="160" height="30" as="geometry" />
        </mxCell>
        <mxCell id="c2jffzd3dU6k3eYHks2j-64" value="" style="sketch=0;points=[[0,0,0],[0.25,0,0],[0.5,0,0],[0.75,0,0],[1,0,0],[0,1,0],[0.25,1,0],[0.5,1,0],[0.75,1,0],[1,1,0],[0,0.25,0],[0,0.5,0],[0,0.75,0],[1,0.25,0],[1,0.5,0],[1,0.75,0]];outlineConnect=0;fontColor=#232F3E;fillColor=#C925D1;strokeColor=#ffffff;dashed=0;verticalLabelPosition=bottom;verticalAlign=top;align=center;html=1;fontSize=12;fontStyle=0;aspect=fixed;shape=mxgraph.aws4.resourceIcon;resIcon=mxgraph.aws4.dynamodb;" vertex="1" parent="c2jffzd3dU6k3eYHks2j-7">
          <mxGeometry x="1080" y="60" width="78" height="78" as="geometry" />
        </mxCell>
        <mxCell id="c2jffzd3dU6k3eYHks2j-65" value="&lt;font style=&quot;font-size: 14px;&quot;&gt;&lt;b&gt;Dynamodb&lt;/b&gt;&lt;/font&gt;&lt;div&gt;&lt;br&gt;&lt;/div&gt;" style="text;html=1;align=center;verticalAlign=middle;resizable=0;points=[];autosize=1;strokeColor=none;fillColor=none;" vertex="1" parent="c2jffzd3dU6k3eYHks2j-7">
          <mxGeometry x="1069" y="138" width="100" height="40" as="geometry" />
        </mxCell>
        <mxCell id="c2jffzd3dU6k3eYHks2j-13" style="edgeStyle=orthogonalEdgeStyle;rounded=0;orthogonalLoop=1;jettySize=auto;html=1;entryX=0;entryY=0.75;entryDx=0;entryDy=0;entryPerimeter=0;" edge="1" parent="1" source="c2jffzd3dU6k3eYHks2j-5" target="c2jffzd3dU6k3eYHks2j-6">
          <mxGeometry relative="1" as="geometry" />
        </mxCell>
        <mxCell id="c2jffzd3dU6k3eYHks2j-14" value="&lt;font style=&quot;font-size: 14px;&quot;&gt;&lt;b&gt;Terraform/CloudFormation&lt;/b&gt;&lt;/font&gt;" style="text;html=1;align=center;verticalAlign=middle;resizable=0;points=[];autosize=1;strokeColor=none;fillColor=none;" vertex="1" parent="1">
          <mxGeometry x="19" y="358" width="200" height="30" as="geometry" />
        </mxCell>
        <mxCell id="c2jffzd3dU6k3eYHks2j-23" value="" style="verticalLabelPosition=bottom;html=1;verticalAlign=top;align=center;strokeColor=none;fillColor=#00BEF2;shape=mxgraph.azure.git_repository;rotation=0;" vertex="1" parent="1">
          <mxGeometry x="200" y="480" width="70" height="70" as="geometry" />
        </mxCell>
        <mxCell id="c2jffzd3dU6k3eYHks2j-24" value="&lt;font style=&quot;font-size: 14px;&quot;&gt;&lt;b&gt;Git Repo&lt;/b&gt;&lt;/font&gt;" style="text;html=1;align=center;verticalAlign=middle;resizable=0;points=[];autosize=1;strokeColor=none;fillColor=none;" vertex="1" parent="1">
          <mxGeometry x="200" y="560" width="80" height="30" as="geometry" />
        </mxCell>
        <mxCell id="c2jffzd3dU6k3eYHks2j-48" style="edgeStyle=orthogonalEdgeStyle;rounded=0;orthogonalLoop=1;jettySize=auto;html=1;entryX=0;entryY=0.5;entryDx=0;entryDy=0;entryPerimeter=0;" edge="1" parent="1" source="c2jffzd3dU6k3eYHks2j-3" target="c2jffzd3dU6k3eYHks2j-23">
          <mxGeometry relative="1" as="geometry" />
        </mxCell>
        <mxCell id="c2jffzd3dU6k3eYHks2j-49" style="edgeStyle=orthogonalEdgeStyle;rounded=0;orthogonalLoop=1;jettySize=auto;html=1;entryX=0;entryY=0.5;entryDx=0;entryDy=0;entryPerimeter=0;" edge="1" parent="1" source="c2jffzd3dU6k3eYHks2j-23" target="c2jffzd3dU6k3eYHks2j-20">
          <mxGeometry relative="1" as="geometry" />
        </mxCell>
        <mxCell id="c2jffzd3dU6k3eYHks2j-50" value="Dev" style="text;html=1;align=center;verticalAlign=middle;resizable=0;points=[];autosize=1;strokeColor=none;fillColor=none;" vertex="1" parent="1">
          <mxGeometry x="19" y="640" width="40" height="30" as="geometry" />
        </mxCell>
        <mxCell id="c2jffzd3dU6k3eYHks2j-158" style="edgeStyle=orthogonalEdgeStyle;rounded=0;orthogonalLoop=1;jettySize=auto;html=1;" edge="1" parent="1" source="c2jffzd3dU6k3eYHks2j-58" target="c2jffzd3dU6k3eYHks2j-113">
          <mxGeometry relative="1" as="geometry" />
        </mxCell>
        <mxCell id="c2jffzd3dU6k3eYHks2j-58" value="" style="sketch=0;outlineConnect=0;fontColor=#232F3E;gradientColor=none;fillColor=#232F3D;strokeColor=none;dashed=0;verticalLabelPosition=bottom;verticalAlign=top;align=center;html=1;fontSize=12;fontStyle=0;aspect=fixed;pointerEvents=1;shape=mxgraph.aws4.users;" vertex="1" parent="1">
          <mxGeometry x="1389" y="-240" width="78" height="78" as="geometry" />
        </mxCell>
        <mxCell id="c2jffzd3dU6k3eYHks2j-66" style="edgeStyle=orthogonalEdgeStyle;rounded=0;orthogonalLoop=1;jettySize=auto;html=1;entryX=0.5;entryY=0;entryDx=0;entryDy=0;entryPerimeter=0;" edge="1" parent="1" source="c2jffzd3dU6k3eYHks2j-58" target="c2jffzd3dU6k3eYHks2j-54">
          <mxGeometry relative="1" as="geometry" />
        </mxCell>
        <mxCell id="c2jffzd3dU6k3eYHks2j-67" value="&lt;font style=&quot;font-size: 14px;&quot;&gt;&lt;b&gt;Users&lt;/b&gt;&lt;/font&gt;" style="text;html=1;align=center;verticalAlign=middle;resizable=0;points=[];autosize=1;strokeColor=none;fillColor=none;" vertex="1" parent="1">
          <mxGeometry x="1398" y="-162" width="60" height="30" as="geometry" />
        </mxCell>
        <mxCell id="c2jffzd3dU6k3eYHks2j-133" value="&lt;font style=&quot;font-size: 14px;&quot;&gt;Auto Scaling group&lt;/font&gt;" style="points=[[0,0],[0.25,0],[0.5,0],[0.75,0],[1,0],[1,0.25],[1,0.5],[1,0.75],[1,1],[0.75,1],[0.5,1],[0.25,1],[0,1],[0,0.75],[0,0.5],[0,0.25]];outlineConnect=0;gradientColor=none;html=1;whiteSpace=wrap;fontSize=12;fontStyle=0;container=1;pointerEvents=0;collapsible=0;recursiveResize=0;shape=mxgraph.aws4.groupCenter;grIcon=mxgraph.aws4.group_auto_scaling_group;grStroke=1;strokeColor=#D86613;fillColor=none;verticalAlign=top;align=center;fontColor=#D86613;dashed=1;spacingTop=25;" vertex="1" parent="1">
          <mxGeometry x="880" y="600" width="690" height="160" as="geometry" />
        </mxCell>
        <mxCell id="c2jffzd3dU6k3eYHks2j-135" value="&lt;font style=&quot;font-size: 14px;&quot;&gt;Node&lt;/font&gt;" style="points=[[0,0],[0.25,0],[0.5,0],[0.75,0],[1,0],[1,0.25],[1,0.5],[1,0.75],[1,1],[0.75,1],[0.5,1],[0.25,1],[0,1],[0,0.75],[0,0.5],[0,0.25]];outlineConnect=0;gradientColor=none;html=1;whiteSpace=wrap;fontSize=12;fontStyle=0;container=1;pointerEvents=0;collapsible=0;recursiveResize=0;shape=mxgraph.aws4.group;grIcon=mxgraph.aws4.group_ec2_instance_contents;strokeColor=#D86613;fillColor=none;verticalAlign=top;align=left;spacingLeft=30;fontColor=#D86613;dashed=0;" vertex="1" parent="c2jffzd3dU6k3eYHks2j-133">
          <mxGeometry x="20" y="15" width="260" height="130" as="geometry" />
        </mxCell>
        <mxCell id="c2jffzd3dU6k3eYHks2j-137" value="" style="aspect=fixed;sketch=0;html=1;dashed=0;whitespace=wrap;fillColor=#2875E2;strokeColor=#ffffff;points=[[0.005,0.63,0],[0.1,0.2,0],[0.9,0.2,0],[0.5,0,0],[0.995,0.63,0],[0.72,0.99,0],[0.5,1,0],[0.28,0.99,0]];shape=mxgraph.kubernetes.icon2;kubernetesLabel=1;prIcon=pod" vertex="1" parent="c2jffzd3dU6k3eYHks2j-135">
          <mxGeometry x="40" y="45" width="50" height="48" as="geometry" />
        </mxCell>
        <mxCell id="c2jffzd3dU6k3eYHks2j-138" value="" style="aspect=fixed;sketch=0;html=1;dashed=0;whitespace=wrap;fillColor=#2875E2;strokeColor=#ffffff;points=[[0.005,0.63,0],[0.1,0.2,0],[0.9,0.2,0],[0.5,0,0],[0.995,0.63,0],[0.72,0.99,0],[0.5,1,0],[0.28,0.99,0]];shape=mxgraph.kubernetes.icon2;kubernetesLabel=1;prIcon=pod" vertex="1" parent="c2jffzd3dU6k3eYHks2j-135">
          <mxGeometry x="170" y="45" width="50" height="48" as="geometry" />
        </mxCell>
        <mxCell id="c2jffzd3dU6k3eYHks2j-136" value="&lt;font style=&quot;font-size: 14px;&quot;&gt;Node&lt;/font&gt;" style="points=[[0,0],[0.25,0],[0.5,0],[0.75,0],[1,0],[1,0.25],[1,0.5],[1,0.75],[1,1],[0.75,1],[0.5,1],[0.25,1],[0,1],[0,0.75],[0,0.5],[0,0.25]];outlineConnect=0;gradientColor=none;html=1;whiteSpace=wrap;fontSize=12;fontStyle=0;container=1;pointerEvents=0;collapsible=0;recursiveResize=0;shape=mxgraph.aws4.group;grIcon=mxgraph.aws4.group_ec2_instance_contents;strokeColor=#D86613;fillColor=none;verticalAlign=top;align=left;spacingLeft=30;fontColor=#D86613;dashed=0;" vertex="1" parent="c2jffzd3dU6k3eYHks2j-133">
          <mxGeometry x="420" y="15" width="260" height="130" as="geometry" />
        </mxCell>
        <mxCell id="c2jffzd3dU6k3eYHks2j-139" value="" style="aspect=fixed;sketch=0;html=1;dashed=0;whitespace=wrap;fillColor=#2875E2;strokeColor=#ffffff;points=[[0.005,0.63,0],[0.1,0.2,0],[0.9,0.2,0],[0.5,0,0],[0.995,0.63,0],[0.72,0.99,0],[0.5,1,0],[0.28,0.99,0]];shape=mxgraph.kubernetes.icon2;kubernetesLabel=1;prIcon=pod" vertex="1" parent="c2jffzd3dU6k3eYHks2j-136">
          <mxGeometry x="36" y="45" width="50" height="48" as="geometry" />
        </mxCell>
        <mxCell id="c2jffzd3dU6k3eYHks2j-140" value="" style="aspect=fixed;sketch=0;html=1;dashed=0;whitespace=wrap;fillColor=#2875E2;strokeColor=#ffffff;points=[[0.005,0.63,0],[0.1,0.2,0],[0.9,0.2,0],[0.5,0,0],[0.995,0.63,0],[0.72,0.99,0],[0.5,1,0],[0.28,0.99,0]];shape=mxgraph.kubernetes.icon2;kubernetesLabel=1;prIcon=pod" vertex="1" parent="c2jffzd3dU6k3eYHks2j-136">
          <mxGeometry x="190" y="41" width="50" height="48" as="geometry" />
        </mxCell>
        <mxCell id="c2jffzd3dU6k3eYHks2j-141" value="" style="sketch=0;outlineConnect=0;fontColor=#232F3E;gradientColor=none;fillColor=#C925D1;strokeColor=none;dashed=0;verticalLabelPosition=bottom;verticalAlign=top;align=center;html=1;fontSize=12;fontStyle=0;aspect=fixed;pointerEvents=1;shape=mxgraph.aws4.elasticache_for_redis;" vertex="1" parent="1">
          <mxGeometry x="1740" y="640" width="78" height="69" as="geometry" />
        </mxCell>
        <mxCell id="c2jffzd3dU6k3eYHks2j-142" value="&lt;font style=&quot;font-size: 14px;&quot;&gt;&lt;b&gt;Redis&lt;/b&gt;&lt;/font&gt;" style="text;html=1;align=center;verticalAlign=middle;resizable=0;points=[];autosize=1;strokeColor=none;fillColor=none;" vertex="1" parent="1">
          <mxGeometry x="1740" y="709" width="60" height="30" as="geometry" />
        </mxCell>
        <mxCell id="c2jffzd3dU6k3eYHks2j-156" style="edgeStyle=orthogonalEdgeStyle;rounded=0;orthogonalLoop=1;jettySize=auto;html=1;" edge="1" parent="1" source="c2jffzd3dU6k3eYHks2j-143" target="c2jffzd3dU6k3eYHks2j-155">
          <mxGeometry relative="1" as="geometry" />
        </mxCell>
        <mxCell id="c2jffzd3dU6k3eYHks2j-143" value="" style="sketch=0;outlineConnect=0;fontColor=#232F3E;gradientColor=none;fillColor=#8C4FFF;strokeColor=none;dashed=0;verticalLabelPosition=bottom;verticalAlign=top;align=center;html=1;fontSize=12;fontStyle=0;aspect=fixed;pointerEvents=1;shape=mxgraph.aws4.network_load_balancer;" vertex="1" parent="1">
          <mxGeometry x="1191" y="482" width="78" height="78" as="geometry" />
        </mxCell>
        <mxCell id="c2jffzd3dU6k3eYHks2j-144" style="edgeStyle=orthogonalEdgeStyle;rounded=0;orthogonalLoop=1;jettySize=auto;html=1;" edge="1" parent="1" source="c2jffzd3dU6k3eYHks2j-137" target="c2jffzd3dU6k3eYHks2j-143">
          <mxGeometry relative="1" as="geometry" />
        </mxCell>
        <mxCell id="c2jffzd3dU6k3eYHks2j-145" style="edgeStyle=orthogonalEdgeStyle;rounded=0;orthogonalLoop=1;jettySize=auto;html=1;" edge="1" parent="1" source="c2jffzd3dU6k3eYHks2j-138" target="c2jffzd3dU6k3eYHks2j-143">
          <mxGeometry relative="1" as="geometry" />
        </mxCell>
        <mxCell id="c2jffzd3dU6k3eYHks2j-146" style="edgeStyle=orthogonalEdgeStyle;rounded=0;orthogonalLoop=1;jettySize=auto;html=1;" edge="1" parent="1" source="c2jffzd3dU6k3eYHks2j-139" target="c2jffzd3dU6k3eYHks2j-143">
          <mxGeometry relative="1" as="geometry" />
        </mxCell>
        <mxCell id="c2jffzd3dU6k3eYHks2j-147" style="edgeStyle=orthogonalEdgeStyle;rounded=0;orthogonalLoop=1;jettySize=auto;html=1;" edge="1" parent="1" source="c2jffzd3dU6k3eYHks2j-153" target="c2jffzd3dU6k3eYHks2j-143">
          <mxGeometry relative="1" as="geometry" />
        </mxCell>
        <mxCell id="c2jffzd3dU6k3eYHks2j-148" value="" style="sketch=0;outlineConnect=0;fontColor=#232F3E;gradientColor=none;fillColor=#DD344C;strokeColor=none;dashed=0;verticalLabelPosition=bottom;verticalAlign=top;align=center;html=1;fontSize=12;fontStyle=0;aspect=fixed;pointerEvents=1;shape=mxgraph.aws4.role;" vertex="1" parent="1">
          <mxGeometry x="1070" y="70" width="78" height="44" as="geometry" />
        </mxCell>
        <mxCell id="c2jffzd3dU6k3eYHks2j-149" value="&lt;font style=&quot;font-size: 14px;&quot;&gt;&lt;b&gt;EKS Role&lt;/b&gt;&lt;/font&gt;" style="text;html=1;align=center;verticalAlign=middle;resizable=0;points=[];autosize=1;strokeColor=none;fillColor=none;" vertex="1" parent="1">
          <mxGeometry x="1064" y="114" width="90" height="30" as="geometry" />
        </mxCell>
        <mxCell id="c2jffzd3dU6k3eYHks2j-150" style="edgeStyle=orthogonalEdgeStyle;rounded=0;orthogonalLoop=1;jettySize=auto;html=1;exitX=0.25;exitY=0;exitDx=0;exitDy=0;" edge="1" parent="1" source="c2jffzd3dU6k3eYHks2j-135" target="c2jffzd3dU6k3eYHks2j-149">
          <mxGeometry relative="1" as="geometry" />
        </mxCell>
        <mxCell id="c2jffzd3dU6k3eYHks2j-151" style="edgeStyle=orthogonalEdgeStyle;rounded=0;orthogonalLoop=1;jettySize=auto;html=1;exitX=0.25;exitY=0;exitDx=0;exitDy=0;entryX=0.956;entryY=0.533;entryDx=0;entryDy=0;entryPerimeter=0;" edge="1" parent="1" source="c2jffzd3dU6k3eYHks2j-136" target="c2jffzd3dU6k3eYHks2j-149">
          <mxGeometry relative="1" as="geometry" />
        </mxCell>
        <mxCell id="c2jffzd3dU6k3eYHks2j-157" style="edgeStyle=orthogonalEdgeStyle;rounded=0;orthogonalLoop=1;jettySize=auto;html=1;" edge="1" parent="1" source="c2jffzd3dU6k3eYHks2j-152" target="c2jffzd3dU6k3eYHks2j-113">
          <mxGeometry relative="1" as="geometry" />
        </mxCell>
        <mxCell id="c2jffzd3dU6k3eYHks2j-152" value="" style="sketch=0;outlineConnect=0;fontColor=#232F3E;gradientColor=none;fillColor=#8C4FFF;strokeColor=none;dashed=0;verticalLabelPosition=bottom;verticalAlign=top;align=center;html=1;fontSize=12;fontStyle=0;aspect=fixed;pointerEvents=1;shape=mxgraph.aws4.application_load_balancer;" vertex="1" parent="1">
          <mxGeometry x="1200" y="270" width="78" height="78" as="geometry" />
        </mxCell>
        <mxCell id="c2jffzd3dU6k3eYHks2j-154" value="" style="edgeStyle=orthogonalEdgeStyle;rounded=0;orthogonalLoop=1;jettySize=auto;html=1;" edge="1" parent="1" source="c2jffzd3dU6k3eYHks2j-140" target="c2jffzd3dU6k3eYHks2j-153">
          <mxGeometry relative="1" as="geometry">
            <mxPoint x="1490" y="680" as="sourcePoint" />
            <mxPoint x="1229" y="568" as="targetPoint" />
          </mxGeometry>
        </mxCell>
        <mxCell id="c2jffzd3dU6k3eYHks2j-153" value="&lt;font style=&quot;font-size: 13px;&quot;&gt;&lt;b&gt;Internal &lt;/b&gt;&lt;/font&gt;NLB" style="text;html=1;align=center;verticalAlign=middle;resizable=0;points=[];autosize=1;strokeColor=none;fillColor=none;" vertex="1" parent="1">
          <mxGeometry x="1180" y="560" width="100" height="30" as="geometry" />
        </mxCell>
        <mxCell id="c2jffzd3dU6k3eYHks2j-155" value="&lt;font style=&quot;font-size: 14px;&quot;&gt;&lt;b&gt;External ALB&lt;/b&gt;&lt;/font&gt;" style="text;html=1;align=center;verticalAlign=middle;resizable=0;points=[];autosize=1;strokeColor=none;fillColor=none;" vertex="1" parent="1">
          <mxGeometry x="1190" y="348" width="110" height="30" as="geometry" />
        </mxCell>
      </root>
    </mxGraphModel>
  </diagram>
</mxfile>
